<svg xmlns="http://www.w3.org/2000/svg" xmlns:xlink="http://www.w3.org/1999/xlink"><defs><clipPath id="a"><path fill="#fff" transform="translate(15)" d="M0 0h70v97H0z"/></clipPath><clipPath id="a"><path fill="#fff" transform="translate(0 20)" d="M0 0h134v56H0z"/></clipPath><clipPath id="a"><path fill="#fff" d="M0 0h134v56H0z"/></clipPath><clipPath id="a"><path fill="#fff" d="M0 0h70v97H0z"/></clipPath><clipPath id="a"><path fill="#fff" transform="translate(25 24)" d="M0 0h30v32H0z"/></clipPath><clipPath id="a"><path fill="#fff" d="M0 0h201.99v59.48H0z"/></clipPath><clipPath id="a"><path fill="#fff" d="M0 0h33.32v37.61H0z"/></clipPath><clipPath id="a"><path fill="#fff" d="M0 0h174v51.683H0z"/></clipPath><clipPath id="a"><path fill="#fff" transform="translate(0 .32)" d="M0 0h20v20.069H0z"/></clipPath><clipPath id="a"><path fill="#fff" transform="translate(25 24)" d="M0 0h29v31H0z"/></clipPath></defs><symbol id="alarm-icon"><g fill="none"><path fill="#68B738" d="M0 0h80v80H0z"/><circle cx="45.2" cy="34.3" fill="#fff" r="1.1"/><circle cx="34.3" cy="34.3" fill="#fff" r="1.1"/><circle cx="34.3" cy="47.4" fill="#fff" r="1.1"/><circle cx="39.8" cy="49.5" fill="#fff" r="1.1"/><circle cx="31.1" cy="40.8" fill="#fff" r="1.1"/><circle cx="48.5" cy="40.8" fill="#fff" r="1.1"/><circle cx="45.2" cy="47.4" fill="#fff" r="1.1"/><mask id="a" fill="#fff"><path fill-rule="evenodd" clip-rule="evenodd" d="M45 52a1 1 0 0 1 1.1.3L48 54a.7.7 0 0 0 1-1l-1.4-1.3c-.4-.5-.4-1.2 0-1.6 2.7-2.3 4.4-5.7 4.4-9.6 0-7-5.5-12.6-12.2-12.6-6.8 0-12.3 5.6-12.3 12.6 0 3.8 1.7 7.2 4.3 9.6a1 1 0 0 1 0 1.5l-1.4 1.5a.7.7 0 1 0 1 1l1.9-2a1 1 0 0 1 1.2-.2A11.9 11.9 0 0 0 45 52Zm-5.2-.2c6 0 10.8-5 10.8-11.2a11 11 0 0 0-10.8-11.2c-6 0-11 5-11 11.2a11 11 0 0 0 11 11.2ZM39 40.3v-7.4a.8.8 0 1 1 1.6 0v8.2c0 .5-.4.8-.8.8a.8.8 0 0 1-.8-.7v-.9Z"/></mask><path fill-rule="evenodd" clip-rule="evenodd" d="M45 52a1 1 0 0 1 1.1.3L48 54a.7.7 0 0 0 1-1l-1.4-1.3c-.4-.5-.4-1.2 0-1.6 2.7-2.3 4.4-5.7 4.4-9.6 0-7-5.5-12.6-12.2-12.6-6.8 0-12.3 5.6-12.3 12.6 0 3.8 1.7 7.2 4.3 9.6a1 1 0 0 1 0 1.5l-1.4 1.5a.7.7 0 1 0 1 1l1.9-2a1 1 0 0 1 1.2-.2A11.9 11.9 0 0 0 45 52Zm-5.2-.2c6 0 10.8-5 10.8-11.2a11 11 0 0 0-10.8-11.2c-6 0-11 5-11 11.2a11 11 0 0 0 11 11.2ZM39 40.3v-7.4a.8.8 0 1 1 1.6 0v8.2c0 .5-.4.8-.8.8a.8.8 0 0 1-.8-.7v-.9Z" fill="#fff"/><path d="M33.3 52.2 36 55l-2.8-2.8Zm1.2-.2 1.8-3.6-1.8 3.6Zm-3.1 2.1-2.9-2.8 2.9 2.8Zm-1-1-2.8-2.7 2.8 2.8Zm17.2-1.3-2.9 2.8 2.9-2.8Zm0-1.6-2.6-3 2.7 3Zm-15.8 0-2.7 3 2.7-3Zm0 1.5L29 49l2.9 2.8ZM49 53.2l3-2.8-3 2.8Zm-1 1-2.8 2.7 2.9-2.8Zm-1.8-2 2.9-2.7-2.9 2.8Zm-1.2-.1-1.7-3.6 1.7 3.6Zm-1.6 3 1.8 1.8 5.7-5.6-1.8-1.8-5.7 5.5Zm8.5-4.7L50.5 49l-5.8 5.6 1.4 1.4 5.7-5.6Zm-1.5 2.8c3.5-3 5.7-7.6 5.7-12.6h-8c0 2.7-1.2 5-3 6.6l5.3 6ZM56 40.6c0-9-7.2-16.6-16.2-16.6v8c4.4 0 8.2 3.7 8.2 8.6h8ZM39.8 24c-9.1 0-16.3 7.6-16.3 16.6h8c0-4.9 3.8-8.6 8.3-8.6v-8ZM23.5 40.6c0 5 2.2 9.5 5.6 12.5l5.3-6a8.8 8.8 0 0 1-2.9-6.5h-8ZM29 49l-1.4 1.5 5.7 5.6 1.4-1.5L29 49Zm5.3 8 1.8-2-5.7-5.5-1.9 2 5.8 5.5Zm-1.6-1.3c2.2 1 4.6 1.6 7 1.6v-8c-1.2 0-2.4-.3-3.4-.8l-3.6 7.2Zm7 1.6c2.5 0 4.9-.5 7-1.5l-3.5-7.2c-1 .5-2.2.7-3.4.7v8Zm0-1.4a15 15 0 0 0 15-15.2h-8a7 7 0 0 1-7 7.2v8Zm15-15.2a15 15 0 0 0-15-15.2v8a7 7 0 0 1 7 7.2h8Zm-15-15.2A15 15 0 0 0 25 40.6h8a7 7 0 0 1 6.9-7.2v-8ZM25 40.6a15 15 0 0 0 14.9 15.2v-8a7 7 0 0 1-7-7.2h-8Zm11.7-.3v.5h8v-.5h-8Zm0 .5v.3h8v-.3h-8Zm6.4.4v-.4h-8v.4h8Zm0-.4v-.5h-8v.5h8Zm0-.5v-3.8h-8v3.8h8Zm0-3.8v-3.6h-8v3.6h8Zm-6.4-3.6v3.6h8v-3.6h-8Zm0 3.6v3.8h8v-3.8h-8Zm3.2-8.3a4.8 4.8 0 0 0-4.8 4.7h8c0 1.8-1.4 3.3-3.2 3.3v-8Zm-3.2 13c0-1.8 1.4-3.3 3.2-3.3v8c2.6 0 4.8-2.1 4.8-4.8h-8ZM36 55a3 3 0 0 1-3.4.6l3.6-7.2a5 5 0 0 0-5.9 1L36 55Zm-8.5 2a4.7 4.7 0 0 0 6.7 0l-5.8-5.7a3.3 3.3 0 0 1 4.8 0L27.6 57Zm0-6.6a4.7 4.7 0 0 0 0 6.5l5.7-5.6a3.3 3.3 0 0 1 0 4.7l-5.7-5.6Zm23-1.4a3 3 0 0 1-.2 4.2l-5.3-6a5 5 0 0 0-.3 7.4l5.8-5.6ZM39.8 36.2a3.2 3.2 0 0 1-3.2-3.3h8c0-2.6-2.2-4.7-4.8-4.7v8ZM29 53.2a3 3 0 0 1-.1-4.3l5.7 5.6a5 5 0 0 0-.3-7.3l-5.3 6Zm22.7 3.7a4.7 4.7 0 0 0 0-6.5L46.1 56a3.3 3.3 0 0 1 0-4.7l5.7 5.6Zm-6.7 0a4.7 4.7 0 0 0 6.7 0L46 51.3a3.3 3.3 0 0 1 4.7 0L45.1 57Zm-5.3-19c1.8 0 3.2 1.5 3.2 3.3h-8c0 2.6 2.1 4.7 4.8 4.7v-8ZM49 49.5a5 5 0 0 0-5.8-1l3.5 7.2a3 3 0 0 1-3.4-.7l5.7-5.5Z" fill="#fff" mask="url(#a)"/><path fill="#fff" d="M39 29v-4h1.5v4z"/><rect x="32" y="25" width="15.5" height="1.5" rx=".8" fill="#fff"/></g></symbol><symbol id="arrow-small"><g fill="none"><path stroke="#000" stroke-width="2" d="M0 6h18"/><path d="m24 6-6.75 5.196V.804L24 6Z" fill="#000"/></g></symbol><symbol id="arrow"><g fill="none"><path stroke="#000" stroke-width="2" d="M0 6h18"/><path d="m24 6-6.8 5.2V.8L24 6Z" fill="#000"/></g></symbol><symbol id="cat-fit-green"><g fill="none"><circle cx="50" cy="56" r="50" fill="#68B738"/><g clip-path="url(#a)"><path d="M69.8 0h-.3c-.7.4-1.2 1-1.5 1.6-.6 1-1 2.2-1.3 3.4a1.6 1.6 0 0 1-1.5 1.3 7.3 7.3 0 0 0-5.2 3.8l-1.9 4c-1.4 3.7-2.5 7.5-3.8 11.2-.6 1.7-.7 1.7-2.6 1.7-2.2 0-2-.4-2.1 2.1 0 .8.2 1.2 1 1.2.3 0 .7-.1.8.2.1.4-.2.5-.4.7a9 9 0 0 1-4.3 2.4L41 35.2a28.6 28.6 0 0 0-12.6 7.5 28 28 0 0 0-4.7 7.9c-3.7 8.6-5.5 17.7-6.9 27-.6 4.2-1 8.6-1.4 13-.2 2-.4 4.2-.4 6.4h33.3c0-.4 0-.9-.2-1.3a5 5 0 0 0-3.8-3c-.7-.2-.8-.4-.4-1 .7-1 1.3-2 1.6-3 1.6-4.9 2.3-9.9 3-14.9A30 30 0 0 1 52 63c1.4-2.5 3.3-4.6 5.6-6.4.8-.6.9-.6 1 .5l.2 2.1c.3 4.8.2 9.5-.2 14.2A61.7 61.7 0 0 0 60.7 97H74a5.4 5.4 0 0 0-4.2-4.4 9 9 0 0 0-3.8.2c-.6.1-.8 0-.9-.7-.4-5.3 0-10.6 1-15.8 1.3-6 2.4-12 3-18.2.3-2.5 1.1-4.8 2.3-7l3.4-6.4a5.9 5.9 0 0 0 .5-5.2l-.9-2.1-3-5.9c-.4-1-.3-1.1.8-1.1 1.6 0 1.6 0 1.6-1.7v-.6c0-.7-.2-1.1-1-1h-1.5c-.7 0-.9-.3-.7-1a6.2 6.2 0 0 1 5.1-4.5 22 22 0 0 1 6.7.5 1 1 0 0 0 1.2-.7 77.4 77.4 0 0 1 1.4-3.6A35.6 35.6 0 0 0 72.8 6.5l-.3-.6c-.2-1.4-.7-2.8-1.3-4.2C71 1 70.5.4 69.8 0Z" fill="#000"/></g></g></symbol><symbol id="cat-grow-green"><g fill="none"><circle cx="69" cy="50" r="50" fill="#68B738"/><g clip-path="url(#a)"><path d="M123.1 25.8c1.2-1.8 2.7-3.4 4.5-4.6 1-.7 1.6-.7 2.2.6.8 1.9 1.5 3.9.9 6a2.3 2.3 0 0 0 .4 2.1l1.6 2.3a6.3 6.3 0 0 1 .9 6.2c-.4 1-.4 2-.2 3.1.2 1 .2 2 0 3a3.8 3.8 0 0 1-2.7 3.2c-1.3.2-2.4 1-3.2 2a1 1 0 0 1-.9.5c-1.2.2-4.2-2.5-4.2-3.7v-.6c.1-3.6-.1-3.9-3.4-5.4-.7-.2-1.3-.7-1.8-1.2-.6-.8-1.4-.7-2.3-.4-.9.3-1.4.9-1.3 1.9.3 2.4.4 4.9.3 7.3 0 .3 0 .6.2.8 3.1 4.5 4.3 9.8 5.8 14.9 1.2 3.9 3.4 6 7.4 6.3l1.9.3a4.2 4.2 0 0 1 3.4 3.2c.7 2.1.3 2.6-1.8 2.6h-6.5c-.8 0-1.7-.2-2.3-.8-1-.9-2.2-1.5-3.4-2a7.3 7.3 0 0 1-3.4-2.6 28.6 28.6 0 0 0-4-4.5c-2.8-2.9-5.8-5.7-8.4-8.7-2-2-3.1-4.8-3.2-7.6 0-.9-.2-1.3-1.2-.9a2 2 0 0 1-1 .3c-2.8 0-4.2 1.7-5.2 4.2-.9 2.1-2.1 4.1-3.2 6.2-.6 1.3-1 2.7-1 4.2 0 2.4.6 3.2 2.8 4 1.4.5 2.7 1 3.4 2.4.8 1.6.6 2-1.1 2.1h-6.8a1.9 1.9 0 0 1-1.9-1.1l-1.8-3a6 6 0 0 1-.7-5.4c.4-1.7.5-3.5.1-5.3a8.4 8.4 0 0 1 1.7-7c.6-.7.6-1-.4-1.2a50 50 0 0 1-11.9-4.2c-3.2-1.2-3.8-1-4.7 2.3-.8 2.8-1.6 5.6-2.2 8.5a17 17 0 0 0 1.1 9.2c.4 1.2 1.6 1.1 2.5 1.4 2 .6 3.7 1.4 4.5 3.5.7 1.6.6 1.8-1.1 1.8h-5.2c-1.5 0-3-.5-4.2-1.4-4.8-3.2-6.2-8.1-6.6-13.4-.2-3.3-2-5.9-4.1-8.4-.4-.5-.8-.7-1.4-.3a44.3 44.3 0 0 1-6.7 3c-4.8 1.7-9 4.8-12.2 8.8-1.2 1.5-2 3.2-2.2 5.1-.3 1.8.2 2.6 2 3.1s2.7 1.5 2.9 3.4c.1.8-.2 1.2-1 1.2h-8.1a1.7 1.7 0 0 1-1.3-.8 8.6 8.6 0 0 1-1.9-5.5c0-3.5.2-7 .9-10.3a6.3 6.3 0 0 1 3.4-4.8c5.9-2.8 9-8.1 11.8-13.6.6-1.1.1-1.3-.9-1.2-2.8.4-5.5 1.5-7.7 3.2-3 2.1-5.7 4.5-8.3 7.1a16.7 16.7 0 0 1-10.3 4.9C3.1 52.5-.3 48.4 0 41.8c0-2.3 1-4.4 2.4-6.1a4.3 4.3 0 0 1 4.5-1.5c1.5.4 1.9 1.2 1.3 2.7l-1 1.7c-.4.6-.8 1.3-1 2-1.1 3 .4 5.1 3.5 5.4 3.3.3 6-1.1 8.5-3.1a45 45 0 0 0 8-8.3 20.8 20.8 0 0 1 14.4-8.1c2.3-.3 4.3-1.3 6.5-1.9 4.1-1.3 8.4-1.9 12.7-1.8 2 0 4-.3 5.8-1.1 4.9-2 10-2 15.1-1 4 .8 8 1.8 11.9 2.8 2.3.4 4.7.4 7-.2 4.4-1.1 8.9-1.8 13.4-2 3-.1 6 .4 8.6 1.7 2 .9 2 .9 1.5 2.8Z" fill="#000"/></g></g></symbol><symbol id="cat-grow"><g fill="none"><g clip-path="url(#a)"><path d="M123.1 5.8c1.2-1.8 2.7-3.4 4.5-4.6 1-.7 1.6-.7 2.2.6.8 1.9 1.5 3.9.9 6a2.3 2.3 0 0 0 .4 2.1l1.6 2.3a6.3 6.3 0 0 1 .9 6.2c-.4 1-.4 2-.2 3.1.2 1 .2 2 0 3a3.8 3.8 0 0 1-2.7 3.2c-1.3.2-2.4 1-3.2 2a1 1 0 0 1-.9.5c-1.2.2-4.2-2.5-4.2-3.7v-.6c.1-3.6-.1-3.9-3.4-5.4-.7-.2-1.3-.7-1.8-1.2-.6-.8-1.4-.7-2.3-.4-.9.3-1.4.9-1.3 1.9.3 2.4.4 4.9.3 7.3 0 .3 0 .6.2.8 3.1 4.5 4.3 9.8 5.8 14.9 1.2 3.9 3.4 6 7.4 6.3l1.9.3a4.2 4.2 0 0 1 3.4 3.2c.7 2.1.3 2.6-1.8 2.6h-6.5c-.8 0-1.7-.2-2.3-.8-1-.9-2.2-1.5-3.4-2a7.3 7.3 0 0 1-3.4-2.6 28.6 28.6 0 0 0-4-4.5c-2.8-2.9-5.8-5.7-8.4-8.7-2-2-3.1-4.8-3.2-7.6 0-.9-.2-1.3-1.2-.9a2 2 0 0 1-1 .3c-2.8 0-4.2 1.7-5.2 4.2-.9 2.1-2.1 4.1-3.2 6.2-.6 1.3-1 2.7-1 4.2 0 2.4.6 3.2 2.8 4 1.4.5 2.7 1 3.4 2.4.8 1.6.6 2-1.1 2.1h-6.8a1.9 1.9 0 0 1-1.9-1.1l-1.8-3a6 6 0 0 1-.7-5.4c.4-1.7.5-3.5.1-5.3a8.4 8.4 0 0 1 1.7-7c.6-.7.6-1-.4-1.2a50 50 0 0 1-11.9-4.2c-3.2-1.2-3.8-1-4.7 2.3-.8 2.8-1.6 5.6-2.2 8.5a17 17 0 0 0 1.1 9.2c.4 1.2 1.6 1.1 2.5 1.4 2 .6 3.7 1.4 4.5 3.5.7 1.6.6 1.8-1.1 1.8h-5.2c-1.5 0-3-.5-4.2-1.4-4.8-3.2-6.2-8.1-6.6-13.4-.2-3.3-2-5.9-4.1-8.4-.4-.5-.8-.7-1.4-.3a44.3 44.3 0 0 1-6.7 3c-4.8 1.7-9 4.8-12.2 8.8-1.2 1.5-2 3.2-2.2 5.1-.3 1.8.2 2.6 2 3.1s2.7 1.5 2.9 3.4c.1.8-.2 1.2-1 1.2h-8.1a1.7 1.7 0 0 1-1.3-.8 8.6 8.6 0 0 1-1.9-5.5c0-3.5.2-7 .9-10.3a6.3 6.3 0 0 1 3.4-4.8c5.9-2.8 9-8.1 11.8-13.6.6-1.1.1-1.3-.9-1.2-2.8.4-5.5 1.5-7.7 3.2-3 2.1-5.7 4.5-8.3 7.1a16.7 16.7 0 0 1-10.3 4.9C3.1 32.5-.3 28.4 0 21.8c0-2.3 1-4.4 2.4-6.1a4.3 4.3 0 0 1 4.5-1.5c1.5.4 1.9 1.2 1.3 2.7l-1 1.7c-.4.6-.8 1.3-1 2-1.1 3 .4 5.1 3.5 5.4 3.3.3 6-1.1 8.5-3.1a45 45 0 0 0 8-8.3 20.8 20.8 0 0 1 14.4-8.1c2.3-.3 4.3-1.3 6.5-1.9 4.1-1.3 8.4-1.9 12.7-1.8 2 0 4-.3 5.8-1.1 4.9-2 10-2 15.1-1 4 .8 8 1.8 11.9 2.8 2.3.4 4.7.4 7-.2 4.4-1.1 8.9-1.8 13.4-2 3-.1 6 .4 8.6 1.7 2 .9 2 .9 1.5 2.8Z" fill="#000"/></g></g></symbol><symbol id="cat-slim"><g fill="none"><g clip-path="url(#a)"><path d="M54.8 0h-.3c-.7.4-1.2 1-1.5 1.6-.6 1-1 2.2-1.3 3.4a1.6 1.6 0 0 1-1.5 1.3 7.3 7.3 0 0 0-5.2 3.8l-1.9 4c-1.4 3.7-2.5 7.5-3.8 11.2-.6 1.7-.7 1.7-2.6 1.7-2.2 0-2-.4-2.1 2.1 0 .8.2 1.2 1 1.2.3 0 .7-.1.8.2.1.4-.2.5-.4.7a9 9 0 0 1-4.3 2.4L26 35.2a28.6 28.6 0 0 0-12.6 7.5 28 28 0 0 0-4.7 7.9c-3.7 8.6-5.5 17.7-6.9 27-.6 4.2-1 8.6-1.4 13-.2 2-.4 4.2-.4 6.4h33.3c0-.4 0-.9-.2-1.3a5 5 0 0 0-3.8-3c-.7-.2-.8-.4-.4-1 .7-1 1.3-2 1.6-3 1.6-4.9 2.3-9.9 3-14.9A30 30 0 0 1 37 63c1.4-2.5 3.3-4.6 5.6-6.4.8-.6.9-.6 1 .5l.2 2.1c.3 4.8.2 9.5-.2 14.2A61.7 61.7 0 0 0 45.7 97H59a5.4 5.4 0 0 0-4.2-4.4 9 9 0 0 0-3.8.2c-.6.1-.9 0-.9-.7-.4-5.3 0-10.6 1-15.8 1.3-6 2.4-12 3-18.2.3-2.5 1.1-4.8 2.3-7l3.4-6.4a5.9 5.9 0 0 0 .5-5.2l-.9-2.1-3-5.9c-.4-1-.3-1.1.8-1.1 1.6 0 1.6 0 1.6-1.7v-.6c0-.7-.2-1.1-1-1h-1.5c-.7 0-.9-.3-.7-1a6.2 6.2 0 0 1 5.1-4.5 22 22 0 0 1 6.7.5 1 1 0 0 0 1.2-.7 77.4 77.4 0 0 1 1.4-3.6A35.6 35.6 0 0 0 57.8 6.5l-.3-.6c-.2-1.4-.7-2.8-1.3-4.2C56 1 55.5.4 54.9 0Z" fill="#000"/></g></g></symbol><symbol id="circle-green"><g fill="none"><ellipse cx="9.943" cy="9" rx="8.989" ry="9" fill="#68B738"/></g></symbol><symbol id="eat-icon"><g fill="none"><path fill="#68B738" d="M0 0h80v80H0z"/><path fill-rule="evenodd" clip-rule="evenodd" d="M46.6 25c.4 0 .8 0 1.1.3 1 .9 2.1 2.9 3 6 1 3 1.8 7.2 1.8 12.7 0 .6-.4 1-1 1H48v9a1 1 0 1 1-2 0V26c0-.4.2-.8.6-1ZM48 43h2.5A39.6 39.6 0 0 0 48 29.5V43ZM34 25c.6 0 1 .4 1 1v28a1 1 0 1 1-2 0V26c0-.6.4-1 1-1Z" fill="#fff"/><path fill-rule="evenodd" clip-rule="evenodd" d="M29.5 25c.6 0 1 .4 1 1v5.5c0 .6.2 1.3.7 2 .5.5 1.3 1 2.8 1a1 1 0 1 1 0 2c-2 0-3.4-.7-4.3-1.8a5 5 0 0 1-1.2-3.2V26c0-.6.4-1 1-1Z" fill="#fff"/><path fill-rule="evenodd" clip-rule="evenodd" d="M38.5 25a1 1 0 0 0-1 1v5.5a3 3 0 0 1-.7 2c-.5.5-1.3 1-2.8 1a1 1 0 0 0 0 2c2 0 3.4-.7 4.3-1.8a5 5 0 0 0 1.2-3.2V26c0-.6-.4-1-1-1Z" fill="#fff"/></g></symbol><symbol id="gift"><g fill="none"><path d="M65.657 35.83H14.391a3.266 3.266 0 0 1-3.263-3.263v-9.772a3.267 3.267 0 0 1 3.263-3.263h51.265a3.266 3.266 0 0 1 3.262 3.263v9.773a3.264 3.264 0 0 1-3.261 3.261ZM14.391 22.031a.773.773 0 0 0-.763.763v9.773c0 .42.342.762.763.762h51.265c.42 0 .762-.342.762-.762v-9.773a.772.772 0 0 0-.762-.763H14.391Z" fill="#fff"/><path d="M58.507 69.308h-36.97a6.289 6.289 0 0 1-6.281-6.282V34.579a1.25 1.25 0 0 1 2.5 0v28.447a3.786 3.786 0 0 0 3.781 3.782h36.97a3.785 3.785 0 0 0 3.781-3.782V34.579a1.25 1.25 0 0 1 2.5 0v28.447a6.288 6.288 0 0 1-6.28 6.282Z" fill="#fff"/><path d="M40.023 69.308c-.69 0-1.25-.56-1.25-1.25V34.579a1.25 1.25 0 0 1 2.5 0v33.478c0 .692-.56 1.25-1.25 1.25ZM24.422 22.028c-3.913-2.12-5.373-7.028-3.255-10.94 2.117-3.912 7.024-5.373 10.939-3.256 5.963 3.23 9.183 12.24 9.316 12.623l-2.358.829c-.03-.085-3.038-8.486-8.148-11.254a5.578 5.578 0 0 0-7.55 2.247 5.58 5.58 0 0 0 2.248 7.553l-1.192 2.198Z" fill="#fff"/><path d="m55.622 22.028-1.19-2.199a5.541 5.541 0 0 0 2.689-3.31 5.53 5.53 0 0 0-.442-4.241A5.527 5.527 0 0 0 53.37 9.59a5.533 5.533 0 0 0-4.24.44c-5.11 2.768-8.118 11.168-8.148 11.253l-2.359-.829c.134-.382 3.353-9.393 9.317-12.623a8.015 8.015 0 0 1 6.143-.637 8.01 8.01 0 0 1 4.794 3.893 8.013 8.013 0 0 1 .639 6.144 8.027 8.027 0 0 1-3.895 4.797ZM63.538 52.569H16.506a1.25 1.25 0 0 1 0-2.5h47.032a1.25 1.25 0 0 1 0 2.5Z" fill="#fff"/></g></symbol><symbol id="green-tick"><g fill="none"><path d="M9 15.499 1.4 6.901 0 8.485l9 10.182 15-16.97L22.6 0 9 15.499Z" fill="#68B738"/></g></symbol><symbol id="icon_arrow"><g fill="none"><path stroke="#000" stroke-width="2" d="M0 6h18"/><path d="m24 6-6.75 5.196V.804L24 6Z" fill="#000"/></g></symbol><symbol id="leaf-icon"><g fill="none"><path fill="#68B738" d="M0 0h80v80H0z"/><g clip-path="url(#a)"><path d="M52.8 26.8a1 1 0 0 0-.9-.8c-5 0-17 1-21.8 8.4-2.5 3.9-2.7 8.9-.6 15-.7 2-1 3.4-1 3.4 0 .5.2 1 .7 1.2h.2a1 1 0 0 0 1-.8s2.4-10.4 10.8-16.4c.4-.3.6-.9.3-1.4a.9.9 0 0 0-1.3-.2 30 30 0 0 0-9.5 11.6c-1.3-4.6-1-8.4 1-11.3 3.7-5.7 12.6-7.1 18-7.4A20 20 0 0 0 47.2 39c0 3.1-.8 5.5-2.4 7.1-2.6 2.6-6.9 2.9-10 2.6-.5 0-1 .4-1 1 0 .5.3 1 .8 1l2 .1c3.2 0 6.9-.7 9.5-3.2 2-2 3-4.9 3-8.6 0-9.1 3.2-11 3.3-11.1.3-.2.5-.7.4-1.1Z" fill="#fff"/></g></g></symbol><symbol id="logo-desktop"><g fill="none"><g clip-path="url(#a)"><path d="M59.88 24a25.61 25.61 0 1 0-27.37 35.2c-.58-2.09-1.17-4.4-1.69-6.85a32.32 32.32 0 0 0 4.76 2.55s.12 2.16.28 4.57c1.788.03 3.575-.127 5.33-.47a2.142 2.142 0 0 1 0-.76c.29-1.87 1.09-5.24 1.25-7.41a15.22 15.22 0 0 0 2.9-3.71l-.06.44c-.55 4.26-1.7 8.81-2.4 10.07a5.577 5.577 0 0 1-.83 1.15A25.64 25.64 0 0 0 59.88 24Zm-1.47 3.79c-.44.43-1.35.72-1.5-.58-.15-1.3-.19-2.21-.19-2.21s-1.93-3.43-2.65-3.47c-.72-.04-5.83 3.47-7.18 5-1.17 1.29-1.4 1.2-1.4 3.47 0 1.71.22 8.17.1 13.11l-8.15 2.17a64.002 64.002 0 0 1-7.8 1.72l-1-5.83h-.14L25.93 28s-3.81-1.44-5.21-1.83a3.76 3.76 0 0 0-4 .63 5.069 5.069 0 0 0-1.73 3.85c.211.465.372.95.48 1.45.05.48-1.2.43-2 .43s-.92-1.44-.29-3.13c.492-1.3 1.1-2.551 1.82-3.74a11.869 11.869 0 0 1 2.07-2.89s.14-.34 1.25-.24c1.11.1 7.28.43 7.28.43l.05-2.27a142.764 142.764 0 0 1 20.24-1.34v1.83a22.52 22.52 0 0 1 8.14-2 .91.91 0 0 1 .77.39c.34.43 2.41 3 2.65 3.37.672.96 1.283 1.963 1.83 3a6.24 6.24 0 0 1-.87 1.84v.01Z" fill="#FDC305"/><path d="M56.46 21.67c.47.6.88 1.13 1 1.29.672.96 1.283 1.963 1.83 3a6.242 6.242 0 0 1-.86 1.78c-.44.43-1.35.72-1.5-.58-.15-1.3-.21-2.16-.21-2.16s-1.93-3.43-2.65-3.47c-.72-.04-5.83 3.47-7.18 5-1.17 1.29-1.4 1.2-1.4 3.47 0 1.5.17 6.65.13 11.23 1.81.2 4.47.7 5.27 1.88 0 0-.29-7.18 7.81-3.42 0 0 .28-9.79 11.46-7.28a43.72 43.72 0 0 0-13.7-10.74ZM45.93 19.35a90.45 90.45 0 0 0-1.4-16.53s-.15-1.3-.87-.24a14.26 14.26 0 0 0-1.2 4 70.88 70.88 0 0 0-12.82.34c-.82-2.75-2.22-4-2.89-3.67-.67.33-.75 3.28-.75 3.28l-.33 14.16a142.778 142.778 0 0 1 20.26-1.34Z" fill="#F06351"/><path d="M45.35 47.12c.13-1.07.2-2.49.24-4.06l-8.15 2.17a64.01 64.01 0 0 1-7.8 1.77l1.11 5c0 .11 0 .22.07.33a32.32 32.32 0 0 0 4.76 2.55 42.42 42.42 0 0 0 6.88-4.13v.06a15.22 15.22 0 0 0 2.89-3.69Z" fill="#E55645"/><path d="M32 16.22c-.05-.1 1 .68 1.41.92.41.24.61.42.61.59 0 .17-.26.34-.62.34s-.92-.12-1-.26c-.08-.14.6 0 .94 0h.29A8.08 8.08 0 0 1 32 16.22ZM39.5 16.33s-1 1.28-1.09 1.34c-.09.06-.17.34.19.29a8.09 8.09 0 0 0 1.22-.28c.11-.06.07-.2-.12-.18-.19.02-.68.05-1 .11l.85-1.27s.03-.12-.05-.01ZM36.36 22.44a2.3 2.3 0 0 0 1.09-1c.28-.66 0-.91-.44-1a2.45 2.45 0 0 0-1.75.34c-.39.37-.34.73 0 1a5.16 5.16 0 0 0 1.1.66Z" fill="#000"/><path d="M36 23.7a2.05 2.05 0 0 1-.46.6 1.73 1.73 0 0 1-1 .38 2.18 2.18 0 0 1-1.54-.44 1.999 1.999 0 0 1-.53-.45 1 1 0 0 0-.36-.25s.75 4.11 2.57 4.77c1.82.66 2.16-.76 2.21-1.14a5.63 5.63 0 0 0-.82-3.24c0-.3-.02-.1-.07-.23Z" fill="#F06351"/><path d="M34.3 24.84a3.502 3.502 0 0 1-2.35-1.43.15.15 0 0 1 0-.2.14.14 0 0 1 .2 0 3.22 3.22 0 0 0 2.11 1.31 2.11 2.11 0 0 0 1.64-1l.14-.19.1.22s.38.76 1 .8c.62.04 1.06-.42 1.63-1.29a.144.144 0 0 1 .24.16c-.667.98-1.297 1.45-1.89 1.41A1.551 1.551 0 0 1 36 23.9a2.26 2.26 0 0 1-1.7.94Z" fill="#000"/><path d="M36.26 38.3a3.75 3.75 0 1 0 0-7.5 3.75 3.75 0 0 0 0 7.5Z" fill="#FDC305"/><path d="m41.23 31.5-3.13 1.31 1.15-5.63-7.5 9.76 3.13-1.31-1.15 5.64 7.5-9.77Zm-7.39 3.83L38 29.92l-.81 4 2-.82L35 38.52l.81-4-1.97.81ZM32.44 33.86a1.12 1.12 0 1 0 0-2.24 1.12 1.12 0 0 0 0 2.24ZM38.96 37.92a.79.79 0 1 0 0-1.58.79.79 0 0 0 0 1.58ZM39.92 35.75a.35.35 0 1 0 0-.7.35.35 0 0 0 0 .7Z" fill="#111"/><path d="M45.88 21.16a57.467 57.467 0 0 0-5.09 5.21 31.877 31.877 0 0 1-5.31 4.9c-.22-.53-1.63-1.52-1.63-1.52s-3.14-2.15-5.2-3.84a31.894 31.894 0 0 1-3.14-3l-2-.11a22.63 22.63 0 0 0 12 8.84c.86-.14 3.28-1.87 5.09-3.28a57.664 57.664 0 0 0 6-5.91 6.38 6.38 0 0 0 1.14-2c-1.14.38-1.86.71-1.86.71Z" fill="#F06351"/><path d="m65.22 3.5-8.46 9.44-1.22-1.99L63.69 0l1.53 3.5ZM62.65 17.26l5.54-4.11-.78-3.74-5.4 4.81.64 3.04ZM59.92 49.37l6.13 3.18 3.01-2.34-6.69-2.75-2.45 1.91ZM1.95 5.97l3.07-3.36 9.29 9-1.22 2.28L1.95 5.97ZM7.38 16.28l-4.7-3.13-2.4 3.87 5.15 2.4 1.95-3.14ZM13.91 52.55 9.36 55.9l2.8 3.58 4.02-4.02-2.27-2.91Z" fill="#FDC305"/><path d="M25.93 28s-3.81-1.44-5.21-1.83a3.76 3.76 0 0 0-4 .63 5.07 5.07 0 0 0-1.73 3.85c.211.465.372.95.48 1.45.05.48-1.2.43-2 .43s-.92-1.44-.29-3.13c.492-1.3 1.1-2.551 1.82-3.74-5.45 2.84-15 9.4-15 9.4a45.825 45.825 0 0 1 8.19.24c5.25.53 5 4.67 5 4.67 1.847-.51 3.728-.88 5.63-1.11 2.12-.14 2.27 2.12 2.27 2.12l.53 3.86a18.294 18.294 0 0 1 2.65-2.36 6.06 6.06 0 0 1 4.38-1.3L25.93 28Z" fill="#F06351"/><path d="M85.66 42a8.29 8.29 0 0 1-1.4-5.19v-7.5a8.42 8.42 0 0 1 1.38-5.24c.927-1.193 2.51-1.787 4.75-1.78 2.24.007 3.757.53 4.55 1.57a6.72 6.72 0 0 1 1.33 4.49v1.76h-4.14V28.2a9.998 9.998 0 0 0-.13-1.5 1.68 1.68 0 0 0-.47-.95 1.56 1.56 0 0 0-1.15-.37 1.46 1.46 0 0 0-1.5.75 5.47 5.47 0 0 0-.34 2.2v9.52a4.78 4.78 0 0 0 .39 2.2 1.48 1.48 0 0 0 1.45.73 1.35 1.35 0 0 0 1.4-.74 5.84 5.84 0 0 0 .31-2.19v-2h4.14v1.73A7.25 7.25 0 0 1 95 42.19c-.88 1.1-2.4 1.64-4.56 1.64-2.16 0-3.85-.6-4.78-1.83ZM101.91 22.58h4.74l4 21h-3.94l-.71-4.64h-3.32l-.8 4.61h-4l4.03-20.97Zm3.65 13.72-1.26-8.44-1.25 8.44h2.51ZM113.72 25.74h-3.24v-3.16h10.72v3.16H118v17.81h-4.29l.01-17.81Z" fill="#111"/><path d="M129.61 22.58h8.13v2.18h-5.2v6.93h4.22v2.07h-4.22v7.69h5.25v2.1h-8.18V22.58ZM140.15 22.58h2l6 13.93V22.58h2.44v21h-1.87l-6-14.32v14.29h-2.48l-.09-20.97ZM153.82 22.58h8.12v2.18h-5.2v6.93H161v2.07h-4.22v7.69H162v2.1h-8.18V22.58ZM164.35 22.58h4.22a7 7 0 0 1 4.67 1.31c1 .87 1.49 2.29 1.49 4.26 0 2.667-.863 4.297-2.59 4.89l3 10.51h-2.84l-2.75-9.84h-2.27v9.84h-2.93V22.58Zm4 9a3.87 3.87 0 0 0 2.7-.76 3.574 3.574 0 0 0 .82-2.71 5.851 5.851 0 0 0-.29-2 1.887 1.887 0 0 0-1-1.08 4.759 4.759 0 0 0-2.05-.35h-1.29v6.94l1.11-.04ZM178.67 42a9.247 9.247 0 0 1-1.27-5.35v-7c-.034-1.35.134-2.7.5-4a4.483 4.483 0 0 1 1.74-2.41 5.91 5.91 0 0 1 3.36-.84 5.264 5.264 0 0 1 4.18 1.48 7.001 7.001 0 0 1 1.28 4.63v.78h-2.75v-.65a11.491 11.491 0 0 0-.18-2.32 2 2 0 0 0-.76-1.23 2.999 2.999 0 0 0-1.72-.41 2.52 2.52 0 0 0-1.81.56 2.557 2.557 0 0 0-.77 1.48 14.718 14.718 0 0 0-.17 2.49V37a7.518 7.518 0 0 0 .59 3.46 2.827 2.827 0 0 0 3.496.736c.383-.197.716-.48.974-.826a8.104 8.104 0 0 0 .61-3.65v-1.48h-2.66v-2.07h5.3v10.38h-1.81l-.29-2.41a3.685 3.685 0 0 1-3.73 2.67 4.657 4.657 0 0 1-4.11-1.81ZM194.69 36.15l-4.53-13.57h2.72l3.21 10.12 3.16-10.12H202l-4.5 13.57v7.4h-2.8l-.01-7.4Z" fill="#444"/></g></g></symbol><symbol id="logo-small"><g fill="none"><g clip-path="url(#a)"><path d="M6.07 20.72v-2.26a143.265 143.265 0 0 1 20.17-1.33c0 .6 0 1.21-.06 1.82a25.518 25.518 0 0 1 6-1.82A16.67 16.67 0 0 0 .19 20.39l5.88.33ZM27.24 24.23c-1.16 1.28-1.39 1.2-1.39 3.45v9.18A16.64 16.64 0 0 0 33.32 23a17.302 17.302 0 0 0-.32-3.1 33.109 33.109 0 0 0-5.76 4.33ZM6.36 25.72s-3.79-1.44-5.19-1.83A8.541 8.541 0 0 0 0 23.61a16.65 16.65 0 0 0 8.68 14L6.36 25.72Z" fill="#FDC305"/><path d="M26.29 17.12A89.799 89.799 0 0 0 24.89.65S24.75-.64 24 .41a14.22 14.22 0 0 0-1.2 3.94 70.34 70.34 0 0 0-12.77.34C9.24 2 7.85.75 7.18 1c-.67.25-.72 3.31-.72 3.31l-.33 14.1a143.211 143.211 0 0 1 20.16-1.29Z" fill="#F06351"/><path d="M12.41 14c0-.09 1 .68 1.41.92.41.24.61.42.61.59 0 .17-.27.34-.63.34s-.91-.12-1-.27h1.23A8.34 8.34 0 0 1 12.41 14ZM19.89 14.11l-1.09 1.33c0 .06-.17.35.18.3a7.351 7.351 0 0 0 1.22-.29c.11 0 .07-.19-.11-.17-.18.02-.69.05-1 .11l.84-1.26s.07-.13-.04-.02ZM16.75 20.2a2.3 2.3 0 0 0 1.09-1c.28-.65 0-.91-.44-1a2.43 2.43 0 0 0-1.74.34c-.39.36-.34.72-.05 1a5.34 5.34 0 0 0 1.14.66Z" fill="#000"/><path d="M16.35 21.45a1.92 1.92 0 0 1-.46.6 1.73 1.73 0 0 1-1 .38 2.15 2.15 0 0 1-1.47-.43 2.3 2.3 0 0 1-.53-.44c-.1-.11-.223-.2-.36-.26 0 0 .75 4.1 2.57 4.75 1.82.65 2.14-.75 2.2-1.13a5.61 5.61 0 0 0-.82-3.23c-.02-.31-.03-.11-.13-.24Z" fill="#F06351"/><path d="M14.71 22.59a3.44 3.44 0 0 1-2.361-1.466.14.14 0 0 1 .031-.154.14.14 0 0 1 .2 0 3.26 3.26 0 0 0 2.11 1.3 2.09 2.09 0 0 0 1.63-1l.14-.19.1.21s.37.76 1 .8c.63.04 1.05-.41 1.61-1.28a.14.14 0 0 1 .2 0 .15.15 0 0 1 .05.2c-.64 1-1.27 1.44-1.88 1.4a1.549 1.549 0 0 1-1.12-.76 2.26 2.26 0 0 1-1.71.94Z" fill="#000"/><path d="M26.24 18.92a58.634 58.634 0 0 0-5.07 5.19A31.633 31.633 0 0 1 15.88 29c-.22-.53-1.62-1.51-1.62-1.51s-3.13-2.14-5.18-3.82a34.139 34.139 0 0 1-3.13-3l-2-.11a22.57 22.57 0 0 0 12 8.8c.86-.14 3.27-1.86 5.07-3.26a58.13 58.13 0 0 0 5.94-5.89 6.15 6.15 0 0 0 1.14-2c-1.1.39-1.86.71-1.86.71Z" fill="#F06351"/></g></g></symbol><symbol id="logo-tablet"><g fill="none"><g clip-path="url(#a)"><path d="M51.582 20.854a22.231 22.231 0 0 0-6.936-9.09 21.96 21.96 0 0 0-10.503-4.396A21.887 21.887 0 0 0 22.865 8.83a22.083 22.083 0 0 0-9.058 6.934 22.354 22.354 0 0 0-4.43 10.564 22.432 22.432 0 0 0 1.373 11.386 22.238 22.238 0 0 0 6.813 9.184 21.965 21.965 0 0 0 10.442 4.54c-.5-1.815-1.008-3.822-1.456-5.951a27.756 27.756 0 0 0 4.1 2.215s.104 1.877.241 3.971c1.54.027 3.08-.11 4.592-.408a1.874 1.874 0 0 1 0-.66c.25-1.625.939-4.553 1.077-6.439a13.212 13.212 0 0 0 2.498-3.224l-.052.383c-.474 3.701-1.464 7.655-2.067 8.75a4.845 4.845 0 0 1-.715.999 22.006 22.006 0 0 0 8.563-4.141 22.237 22.237 0 0 0 6.047-7.386 22.45 22.45 0 0 0 .749-18.694Zm-1.266 3.293c-.38.374-1.163.626-1.293-.504-.129-1.13-.163-1.92-.163-1.92s-1.663-2.98-2.283-3.015c-.62-.035-5.022 3.015-6.185 4.344-1.008 1.121-1.206 1.043-1.206 3.015 0 1.486.19 7.1.086 11.392l-7.02 1.886a54.724 54.724 0 0 1-6.72 1.494l-.861-5.066h-.12L22.335 24.33s-3.282-1.252-4.488-1.59a3.213 3.213 0 0 0-3.445.547c-.472.417-.85.931-1.107 1.509a4.437 4.437 0 0 0-.384 1.836c.182.404.321.826.414 1.26.043.417-1.034.374-1.723.374-.69 0-.793-1.251-.25-2.72.424-1.129.948-2.217 1.568-3.25a10.312 10.312 0 0 1 1.783-2.51s.12-.296 1.077-.21c.956.088 6.271.374 6.271.374l.043-1.972a121.95 121.95 0 0 1 17.436-1.165v1.59a19.265 19.265 0 0 1 7.011-1.737.778.778 0 0 1 .664.339c.293.373 2.076 2.607 2.283 2.928.579.835 1.105 1.705 1.576 2.607a5.44 5.44 0 0 1-.75 1.599v.008Z" fill="#FDC305"/><path d="M48.636 18.83c.405.52.758.981.862 1.12.579.835 1.105 1.706 1.576 2.607a5.444 5.444 0 0 1-.74 1.547c-.38.373-1.164.625-1.293-.504-.13-1.13-.18-1.877-.18-1.877s-1.663-2.98-2.283-3.015c-.62-.035-5.023 3.015-6.186 4.344-1.008 1.121-1.206 1.043-1.206 3.015 0 1.304.147 5.779.112 9.758 1.56.174 3.851.609 4.54 1.634 0 0-.25-6.239 6.728-2.972 0 0 .241-8.506 9.872-6.325a37.712 37.712 0 0 0-11.802-9.333ZM39.565 16.814A79.266 79.266 0 0 0 38.36 2.45s-.129-1.13-.749-.208a12.474 12.474 0 0 0-1.034 3.475 60.536 60.536 0 0 0-11.043.296c-.707-2.39-1.913-3.476-2.49-3.189-.577.287-.646 2.85-.646 2.85l-.284 12.304a121.956 121.956 0 0 1 17.452-1.165Z" fill="#F06351"/><path d="M39.065 40.943c.112-.93.172-2.163.207-3.527l-7.02 1.885a54.724 54.724 0 0 1-6.72 1.538l.957 4.345c0 .095 0 .19.06.286a27.759 27.759 0 0 0 4.1 2.216 36.485 36.485 0 0 0 5.927-3.589v.053a13.21 13.21 0 0 0 2.49-3.207Z" fill="#E55645"/><path d="M27.566 14.094c-.043-.087.861.59 1.214.8.353.208.526.364.526.512 0 .148-.224.295-.534.295-.31 0-.793-.104-.862-.226-.069-.121.517 0 .81 0h.25a6.987 6.987 0 0 1-1.404-1.381ZM34.026 14.19s-.861 1.112-.939 1.164c-.077.052-.146.295.164.252a6.911 6.911 0 0 0 1.051-.244c.095-.052.06-.173-.103-.156-.164.017-.586.043-.862.096l.732-1.104s.026-.104-.043-.009ZM31.322 19.498c.399-.177.729-.482.938-.868.242-.574 0-.791-.379-.87a2.095 2.095 0 0 0-1.507.296c-.336.322-.293.634 0 .869.29.23.61.423.948.573Z" fill="#000"/><path d="M31.011 20.593a1.78 1.78 0 0 1-.396.522c-.245.199-.547.314-.861.33a1.866 1.866 0 0 1-1.327-.383 1.724 1.724 0 0 1-.456-.39.862.862 0 0 0-.31-.218s.645 3.572 2.213 4.145c1.568.573 1.86-.66 1.904-.99a4.925 4.925 0 0 0-.706-2.816c0-.26-.018-.087-.06-.2Z" fill="#F06351"/><path d="M29.547 21.584a2.998 2.998 0 0 1-2.024-1.243.131.131 0 0 1 0-.173.122.122 0 0 1 .086-.037.121.121 0 0 1 .086.037 2.785 2.785 0 0 0 1.817 1.138 1.806 1.806 0 0 0 1.413-.87l.12-.164.087.191s.327.66.861.695c.534.035.913-.365 1.404-1.12a.123.123 0 0 1 .172-.035.125.125 0 0 1 .035.173c-.574.852-1.117 1.26-1.628 1.225a1.328 1.328 0 0 1-.965-.634 1.954 1.954 0 0 1-1.464.817Z" fill="#000"/><path d="M31.235 33.28c1.784 0 3.23-1.46 3.23-3.259 0-1.8-1.446-3.258-3.23-3.258s-3.23 1.458-3.23 3.258 1.446 3.258 3.23 3.258Z" fill="#FDC305"/><path d="m35.516 27.37-2.696 1.14.99-4.893-6.46 8.48 2.697-1.138-.991 4.901 6.46-8.49ZM29.151 30.7l3.583-4.701-.698 3.476 1.723-.713-3.61 4.71.699-3.476-1.697.704ZM27.945 29.422a.969.969 0 0 0 .965-.974.969.969 0 0 0-.965-.973.969.969 0 0 0-.965.973c0 .538.432.974.965.974ZM33.561 32.95c.376 0 .68-.308.68-.687a.684.684 0 0 0-.68-.687.684.684 0 0 0-.68.687c0 .379.304.686.68.686ZM34.388 31.064a.303.303 0 0 0 .302-.304.303.303 0 0 0-.302-.305.303.303 0 0 0-.301.305c0 .168.135.304.301.304Z" fill="#111"/><path d="M39.522 18.386a49.73 49.73 0 0 0-4.384 4.527 27.555 27.555 0 0 1-4.574 4.258c-.19-.46-1.405-1.32-1.405-1.32s-2.704-1.869-4.48-3.337a27.578 27.578 0 0 1-2.704-2.607l-1.723-.096a19.507 19.507 0 0 0 10.337 7.681c.741-.121 2.826-1.624 4.385-2.85a49.885 49.885 0 0 0 5.169-5.135c.429-.514.761-1.103.982-1.738-.982.33-1.603.617-1.603.617ZM22.337 24.33s-3.282-1.252-4.488-1.59a3.214 3.214 0 0 0-3.446.547c-.472.417-.85.931-1.107 1.509a4.439 4.439 0 0 0-.383 1.836c.182.404.32.826.413 1.26.043.417-1.033.374-1.723.374-.689 0-.792-1.251-.25-2.72.424-1.129.949-2.217 1.568-3.25C8.227 24.764 0 30.464 0 30.464a39.136 39.136 0 0 1 7.055.209c4.523.46 4.307 4.058 4.307 4.058a33.033 33.033 0 0 1 4.85-.965c1.826-.121 1.956 1.842 1.956 1.842l.456 3.354a15.804 15.804 0 0 1 2.283-2.05 5.189 5.189 0 0 1 3.773-1.13L22.337 24.33Z" fill="#F06351"/><path d="M73.79 36.495a7.25 7.25 0 0 1-1.206-4.51v-6.517a7.364 7.364 0 0 1 1.189-4.553c.798-1.037 2.162-1.553 4.091-1.547 1.93.006 3.236.46 3.92 1.364a5.875 5.875 0 0 1 1.145 3.902v1.53h-3.566v-1.66a8.768 8.768 0 0 0-.112-1.304 1.464 1.464 0 0 0-.405-.825 1.341 1.341 0 0 0-.99-.322 1.248 1.248 0 0 0-1.292.652 4.79 4.79 0 0 0-.293 1.911v8.273c-.04.654.076 1.31.336 1.911a1.265 1.265 0 0 0 1.25.634c.241.035.488-.008.705-.124.216-.115.391-.297.5-.519a5.114 5.114 0 0 0 .267-1.902V31.15h3.566v1.503a6.342 6.342 0 0 1-1.06 4.006c-.758.955-2.067 1.425-3.928 1.425-1.86 0-3.316-.522-4.117-1.59ZM87.788 19.62h4.083l3.446 18.247h-3.394l-.612-4.031h-2.86l-.689 4.005h-3.445l3.471-18.22Zm3.144 11.922-1.085-7.334-1.077 7.334h2.162ZM97.962 22.366H95.17V19.62h9.234v2.746h-2.757V37.84h-3.695l.008-15.475Z" fill="#111"/><path d="M111.65 19.62h7.003v1.894h-4.479v6.022h3.635v1.799h-3.635v6.682h4.522v1.824h-7.046v-18.22ZM120.729 19.62h1.723l5.168 12.104V19.62h2.102v18.247h-1.611l-5.168-12.442V37.84h-2.136l-.078-18.22ZM132.505 19.62h6.994v1.894h-4.479v6.022h3.67v1.799h-3.635v6.682h4.496v1.824h-7.046v-18.22ZM141.576 19.62h3.635a5.994 5.994 0 0 1 4.023 1.138c.861.756 1.283 1.99 1.283 3.702 0 2.317-.744 3.733-2.231 4.249l2.584 9.132h-2.446l-2.369-8.55H144.1v8.55h-2.524v-18.22Zm3.445 7.82c.83.081 1.66-.154 2.326-.66a3.115 3.115 0 0 0 .706-2.355 5.12 5.12 0 0 0-.249-1.738 1.645 1.645 0 0 0-.862-.938 4.068 4.068 0 0 0-1.766-.304h-1.111v6.03l.956-.035ZM153.911 36.495a8.104 8.104 0 0 1-1.094-4.65v-6.082a11.857 11.857 0 0 1 .431-3.475 3.894 3.894 0 0 1 1.499-2.094 5.056 5.056 0 0 1 2.894-.73c.657-.063 1.32.02 1.941.241a4.526 4.526 0 0 1 1.66 1.045 6.12 6.12 0 0 1 1.102 4.023v.678h-2.368v-.565a10.088 10.088 0 0 0-.155-2.016 1.742 1.742 0 0 0-.655-1.069 2.567 2.567 0 0 0-1.482-.356 2.158 2.158 0 0 0-1.559.486 2.229 2.229 0 0 0-.663 1.287c-.109.715-.158 1.439-.147 2.163v6.769a6.575 6.575 0 0 0 .509 3.006 2.434 2.434 0 0 0 1.944.912 2.426 2.426 0 0 0 1.906-.99 7.111 7.111 0 0 0 .526-3.171V30.62h-2.292v-1.799h4.566v9.02h-1.56l-.249-2.095a3.211 3.211 0 0 1-1.206 1.725 3.158 3.158 0 0 1-2.007.595 3.985 3.985 0 0 1-1.971-.328 4.02 4.02 0 0 1-1.57-1.244ZM167.711 31.411l-3.902-11.79h2.343l2.765 8.793 2.722-8.794h2.369l-3.876 11.791v6.43h-2.412l-.009-6.43Z" fill="#444"/></g></g></symbol><symbol id="mail"><g fill="none"><path stroke="#222" stroke-width="1.3" d="M.65 5.848v8M17.65 5.848v8M0 13.198h18M0 1.198h18M17.35 3.03 9 9.524.65 3.03V1.498h16.7V3.03Z"/></g></symbol><symbol id="phone"><g fill="none"><g clip-path="url(#a)" fill="#000"><path d="M17.9 9.753H9.4v1.204h8.5l-2.1 2.107.9.903 3.1-3.11a.754.754 0 0 0 0-.904l-3.1-3.11-.9.903 2.1 2.007ZM8.1 19.787v-6.221a.653.653 0 0 0-.6-.602H3.1a1.226 1.226 0 0 0 1.2 1.204h2.5v5.017H3.1a1.784 1.784 0 0 1-1.728-1.02 1.801 1.801 0 0 1-.172-.686V3.431a1.78 1.78 0 0 1 .483-1.25A1.767 1.767 0 0 1 2.9 1.624h3.9v5.017H4.4a1.218 1.218 0 0 0-1.2 1.204h4.4a.649.649 0 0 0 .6-.602V.923A.863.863 0 0 0 7.5.32H3.1a2.99 2.99 0 0 0-2.151.81A3.01 3.01 0 0 0 0 3.23v13.948a2.91 2.91 0 0 0 .772 2.192 2.89 2.89 0 0 0 2.128.919h4.6a.499.499 0 0 0 .6-.502Z"/></g></g></symbol><symbol id="plus-phone"><g fill="none"><path stroke="#D3D3D3" stroke-width="2" d="M15 0v30M30 15H0"/></g></symbol><symbol id="plus"><g fill="none"><path stroke="#D3D3D3" stroke-width="2" d="M31 0v60M60 31H0"/></g></symbol><symbol id="tub-icon"><g fill="none"><path fill="#68B738" d="M0 0h80v80H0z"/><g clip-path="url(#a)" fill="#fff"><path d="M45.8 42.5c-1.7 0-3.1 1.5-3.1 3.3 0 1.8 1.4 3.3 3 3.3 1.8 0 3.2-1.5 3.2-3.3 0-1.8-1.4-3.3-3.1-3.3Zm0 5c-1 0-1.6-.8-1.6-1.7 0-1 .7-1.7 1.6-1.7.9 0 1.6.7 1.6 1.7s-.7 1.7-1.6 1.7ZM36.6 24c-1.8 0-3.2 1.5-3.2 3.4s1.4 3.4 3.2 3.4c1.8 0 3.2-1.5 3.2-3.4S38.4 24 36.6 24Zm0 5.5c-1 0-2-1-2-2.1s1-2 2-2 2 .9 2 2-1 2-2 2Zm-3.4 12.1c-1.3 0-2.3 1.1-2.3 2.5s1 2.5 2.3 2.5c1.3 0 2.4-1.1 2.4-2.5s-1-2.5-2.4-2.5Zm-.2 1.9c-.5 0 1.2 1.1 1.2.6 0-.5-1.7.4-1.2.4s1-.9 1-.4-.5-.6-1-.6Zm10.5-9.7s3-.9 6.2 1.5c.9.7 1.7 1.3 1.1 2-.3.4-.6.7-1.7-.4a7 7 0 0 0-5.6-1.5c-1.1.2-2 .6-3.6 2.2a8.3 8.3 0 0 1-6.5 2.5 8.1 8.1 0 0 1-5.2-2.6c-.3-.4-.3-.9-.1-1.1.1-.3.8-.5 1.2-.1.3.3 2 2 3.8 2 1.7.1 3.4.2 5.7-2 2.3-2.1 3.5-2.3 4.7-2.5Z"/><mask id="b"><path d="M53.6 50.8V32.2c0-.6-.3-.7-.5-.7h-.5c-.5 0-.5.6-.5.7v18.6c0 .4-.1 1.2-.8 2-.9.6-1.7.5-1.7.5H29c-.4 0-1-.2-1.6-1-.6-.8-.5-1.9-.5-1.9v-18c0-1-.7-.9-.7-.9H26c-.5 0-.5.6-.5.8v18.5c0 1.4.4 2.4 1.5 3.4 1.1.9 2.4.8 2.4.8H50c.8 0 2-.4 2.9-1.5.9-1.2.8-2.7.8-2.7Z"/></mask><path d="M53.6 50.8V32.2c0-.6-.3-.7-.5-.7h-.5c-.5 0-.5.6-.5.7v18.6c0 .4-.1 1.2-.8 2-.9.6-1.7.5-1.7.5H29c-.4 0-1-.2-1.6-1-.6-.8-.5-1.9-.5-1.9v-18c0-1-.7-.9-.7-.9H26c-.5 0-.5.6-.5.8v18.5c0 1.4.4 2.4 1.5 3.4 1.1.9 2.4.8 2.4.8H50c.8 0 2-.4 2.9-1.5.9-1.2.8-2.7.8-2.7Z"/><path d="M53.6 50.8h-20v.8l20-.8Zm-.5-19.3.7-20h-.7v20Zm-1 .7-20-.1v.1h20Zm0 .1H32h20Zm0 18.5-20-.7 20 .7Zm-.8 2 13 15 .4-.3.4-.4-13.8-14.4Zm-1.7.5L52 33.5l-1.1-.2h-1.2v20Zm-20.6 0L25.6 73l1.1.2H28l1-19.9Zm-1.6-1L11 63.8l16.4-11.5Zm-.5-1.9 20 2.1v-2H27Zm-.7-18.9v20h.8l-.8-20Zm-.8.8-20-.3v.3h20Zm1.5 21.9-13 15.1 13-15.1Zm2.4.8V35H28l1.3 20Zm23.5-1.5L68.3 66 52.8 53.5Zm20.8-2.7V32.2h-40v18.6h40Zm0-18.6a20.6 20.6 0 0 0-19.8-20.7l-1.4 40a19.5 19.5 0 0 1-18.8-19.3h40ZM53.1 11.5h-.5v40h.5v-40Zm-.5 0a20.5 20.5 0 0 0-20.5 20.6l40 .3c0 .7 0 3.9-1.7 7.6a19.5 19.5 0 0 1-17.8 11.5v-40ZM32.1 32.2h40-40Zm0 0v.1h40-40Zm0 .1v10.5a8664.8 8664.8 0 0 1 0 7.3c0 .8 0 .4 0 0l40 1.5v-1.5a1362.3 1362.3 0 0 0 0-7.3V32.3H32Zm0 17.8c0-1.4.4-7 5.3-11.8L65 67.1a22.7 22.7 0 0 0 7-15.5L32 50Zm6.1-12.5a17.5 17.5 0 0 1 13.5-4.2h.1a2078 2078 0 0 1-4.4 39.8 43 43 0 0 0 2.9.1 22 22 0 0 0 14-5.4l-26-30.3Zm11.4 15.7v-20h-3.1a17382 17382 0 0 1-16.4 0c-1 0-.6 0 0 0l-2.2 40h21.7v-20ZM32.4 33.6a17.6 17.6 0 0 1 11.3 7.2L11 63.8c5 7.1 12 8.8 14.6 9.2l6.8-39.4Zm11.3 7.2a17.3 17.3 0 0 1 3.1 11.7l-19.9-2A3223 3223 0 0 0 7 48.3a19 19 0 0 0 0 2 23.4 23.4 0 0 0 4 13.4l32.7-23Zm3.2 9.6v-18H7v18h40Zm0-18a20.7 20.7 0 0 0-21.4-20.9l.7 20 .8 20a28.2 28.2 0 0 1-4-.3A19.3 19.3 0 0 1 7 32.3h40Zm-20.7-21H26v40h.3v-40Zm-.3 0A20.5 20.5 0 0 0 5.4 32l40 .6c0 .7 0 4-1.8 7.7a19.4 19.4 0 0 1-17.7 11.2v-40ZM5.4 32.3v18.6h40V32.2h-40Zm0 18.5c0 7 2.9 13.7 8.5 18.5l26-30.3a15.6 15.6 0 0 1 5.5 11.8h-40Zm8.5 18.5A23.6 23.6 0 0 0 30.4 75h.1l-1.2-20A2530.9 2530.9 0 0 1 28 35a16.3 16.3 0 0 1 4.5.4c2 .4 4.7 1.3 7.3 3.6L14 69.3ZM29.3 55v20H50l-.1-40H29.3v20Zm20.6 20c7.1 0 13.8-3.3 18.4-8.9l-31-25.3C40 37.5 44.4 35 49.8 35l.1 40Zm18.4-8.9a24 24 0 0 0 5.3-16l-20 .7-20 .8a8.8 8.8 0 0 1 0-.8 16.5 16.5 0 0 1 .3-3 16 16 0 0 1 3.4-7l31 25.3Z" mask="url(#b)"/></g></g></symbol></svg>