<svg xmlns="http://www.w3.org/2000/svg">
<svg id="pluse" viewBox="0 0 60 60">
  <path stroke="currentColor" stroke-width="2" d="M31 0v60M60 31H0"/>
</svg>
<svg viewBox="0 0 24 19" id="vkontakte">
  <path d="M0 2.3C0 1.5.5 1 1.5 1h4c.3 0 .5.1.5.4l1.4 3.2A39.8 39.8 0 0 0 9.8 8s.2 0 .2-.2l.1-.3V3.2c0-.3 0-.5-.2-.6l-.8-.2c-.3 0-.5-.3-.5-.6v-.1C9 .6 10.1 0 11.8 0h1.5c.7 0 1.3.2 1.7.5.4.3.7.8.7 1.5v5.7l.3.1c.3 0 .5-.1.7-.4A17.7 17.7 0 0 0 20 2l.6-.7.8-.4H25.9c.4 0 .7.2.8.5l.2.3a2.4 2.4 0 0 1 0 .6v.1c0 .7-.4 1.5-.9 2.2-.5.8-1.1 1.7-2 2.6a27.6 27.6 0 0 0-1.6 2.3c0 .1 0 .3.2.5l3.9 4.6c.2.3.3.5.3.9s-.2.7-.5 1a2 2 0 0 1-1.1.3h-4.6l-.1.1c-.4 0-.8-.2-1.1-.5a241.3 241.3 0 0 1-3-3.3 38.5 38.5 0 0 0-.4 2.3l-.1.4c-.2.6-.6 1-1.1 1h-3c-1.5 0-3-.6-4.4-1.8-1.5-1.3-2.8-3-4-5A47.5 47.5 0 0 1 0 2.3ZM16 9c-.4 0-.7-.1-1-.3a.9.9 0 0 1-.5-.8V2c0-.3 0-.6-.2-.7-.2-.2-.5-.2-1-.2h-1.5c-.7 0-1.3.1-1.7.4.8.3 1.2 1 1.2 1.7v4.4c0 .4-.2.8-.6 1-.3.3-.6.5-1 .5-.6 0-1-.3-1.3-.8-1.3-2-2.4-3.8-3-5.6L5 2.1H1.2v.7l.6 1.4a33 33 0 0 0 4.8 8.6c1.8 2 3.5 3.1 5.2 3.1h2.9l.1-.4v-.3l.6-2.2.3-.6c.2-.2.5-.3.7-.3.5 0 .9.3 1.3.8l2.3 2.7c.2.2.3.3.5.3h4.4c.5 0 .8-.1.8-.4l-.1-.2-3.9-4.6c-.3-.3-.4-.7-.4-1 0-.5.1-.9.4-1.3L23 6.8l1.8-2.2c.5-.7.8-1.3 1-1.9V2.1h-4.2c-.3 0-.5.2-.6.4l-.2.5c-.4 1.1-1.6 3-3.5 5.3-.4.4-.8.6-1.3.6Z"/>
</svg>
<svg id="html-academy" viewBox="0 0 27 34">
  <path d="M13.6 0h-.1L0 1.4V26l13.5 8L27 26V1.4L13.6 0Zm11.6 25-11.7 7-11.7-7V15l11.7 6.8v1.3l-8-4.7v1.2l8 4.8v1.3l-8-4.8v1.2l8 4.9 8.1-4.9V17l3.6-2.1V25Zm0-11.5L22 15.3l-1.5 1-7-4.3v1.2l6 3.6-.2.1-.8.5-5-3v1.3l3.9 2.3-1 .6-3-1.7v1.2l2 1.2-2 1.1-11.6-6.8 11.6-7 11.8 6.9Zm0-1.3L13.4 5.3l-11.6 7V3l11.7-1.2L25.2 3v9.2Z"/>
</svg>
<svg viewBox="0 0 20 18" id="telegram">
  <path d="m19.5.2.2.6L17 16.5a.7.7 0 0 1-1 .5l-8-5.3a.7.7 0 0 1 0-1l2.5-3.2-4.3 2.9h-.7L.4 7.8a.7.7 0 0 1 0-1.2L18.8 0c.2 0 .5 0 .7.2ZM2.3 7.3 6 9.1l7.5-5a.7.7 0 0 1 .9 1l-4.8 6 6.4 4.2 2.3-13.6L2.3 7.3Z"/>
</svg>
<svg id="youtube" viewBox="0 0 24 19">
  <path d="m15.9 8.8-5.3-3.5a.7.7 0 0 0-1 .5v7a.7.7 0 0 0 1 .6L16 9.9a.7.7 0 0 0 0-1.1Zm-5 2.8V7.1l3.4 2.2-3.4 2.3ZM23.4 3a2.4 2.4 0 0 0-1.5-1.6C18.2 0 12.3 0 12 0c-.3 0-6.2 0-10 1.4A2.4 2.4 0 0 0 .7 3C.3 4.1 0 6 0 9.3s.3 5.3.6 6.3a2.4 2.4 0 0 0 1.5 1.7c3.7 1.4 9.6 1.4 9.9 1.4.8 0 6.4 0 10-1.4a2.4 2.4 0 0 0 1.4-1.7c.3-1 .6-3 .6-6.3 0-3.2-.3-5.2-.6-6.3ZM22 15.3a1 1 0 0 1-.6.7C18 17.4 12 17.4 12 17.4c0 0-6 0-9.5-1.4a1 1 0 0 1-.6-.7c-.3-1-.6-2.8-.6-6 0-3 .3-5 .6-6a1 1 0 0 1 .6-.7C6 1.3 12 1.3 12 1.3c0 0 6 0 9.5 1.3a1 1 0 0 1 .6.8c.3 1 .6 2.8.6 6 0 3-.3 4.9-.6 6Z"/>
</svg>
<svg id="mail" viewBox="0 0 19 14">
  <line x1="1.18955" y1="6" x2="1.18955" y2="14" stroke="currentColor" stroke-width="1.3"/>
  <line x1="18.1896" y1="6" x2="18.1896" y2="14" stroke="currentColor" stroke-width="1.3"/>
  <line x1="0.539551" y1="13.35" x2="18.5396" y2="13.35" stroke="currentColor" stroke-width="1.3"/>
  <line x1="0.539551" y1="1.35" x2="18.5396" y2="1.35" stroke="currentColor" stroke-width="1.3"/>
  <path stroke="currentColor" stroke-width="1.3" d="M1.1 6v8M18.1 6v8M.5 13.3h18M.5 1.4h18M17.8 3.2 9.5 9.7 1 3.2V1.6h16.7v1.6Z"/>
</svg>
<svg id="phone" viewBox="0 0 20 21">
  <g clip-path="url(#a)">
    <path d="M17.9 9.8H9.4V11h8.5l-2.1 2 .9 1 3.1-3.1a.8.8 0 0 0 0-1l-3.1-3-.9.8 2.1 2ZM8.1 19.8v-6.2a.7.7 0 0 0-.6-.6H3.1a1.2 1.2 0 0 0 1.2 1.2h2.5v5H3.1a1.8 1.8 0 0 1-1.9-1.7v-14a1.8 1.8 0 0 1 1.7-1.9h3.9v5H4.4a1.2 1.2 0 0 0-1.2 1.2h4.4a.6.6 0 0 0 .6-.6V1a.9.9 0 0 0-.7-.6H3.1a3 3 0 0 0-3.1 3v13.9a3 3 0 0 0 2.9 3h4.6a.5.5 0 0 0 .6-.4Z"/>
  </g>
  <defs>
    <clipPath id="a">
      <path fill="#fff" transform="translate(0 .3)" d="M0 0h20v20.1H0z"/>
    </clipPath>
  </defs>
</svg>
<svg id="logo-word">
  <path d="M1.3 16.5A6.9 6.9 0 0 1 0 12.2V5.8a7 7 0 0 1 1.2-4.3C2 .5 3.4 0 5.4 0s3.2.5 4 1.3c.9 1 1.3 2.4 1.2 3.8v1.5H6.7V4.8c0-.5 0-1-.2-1.5L6 2.8l-.6-.1c-.6 0-1 .1-1.1.5C4 3.8 4 4.3 4 5v8.3l.3 1.6c.2.4.6.5 1.2.5.5 0 .8-.1 1-.5.2-.6.2-1.1.2-1.6v-1.9h3.9v1.5c0 1.4-.3 2.8-1.2 3.9-.8 1-2.1 1.4-4 1.4-2-.1-3.3-.6-4.1-1.6ZM15.3.2h4.5L23 17.8h-3.7l-.6-3.7h-2.6l-.6 3.7h-3.7L15.3.2Zm3.2 11.6-1-6.9-.9 6.9h1.9ZM25.8 3.2h-2.6v-3h9.4v2.9h-2.7v14.7h-4V3.2ZM39.8.2h7v1.9h-4.6v5.7h3.6v1.8h-3.6v6.5h4.5v1.7h-7V.2ZM48.8.2h1.7l5.1 11.6V.2h2v17.6h-1.5L51 5.8v12h-2.1V.2ZM60 .2h7v1.9h-4.5v5.7h3.6v1.8h-3.6v6.5H67v1.7h-7V.2ZM69 .2h3.7c1.4 0 2.9.3 4 1.1 1 .7 1.3 2 1.3 3.5 0 2.3-.7 3.7-2.2 4.1l2.5 8.8H76l-2.4-8.2h-2v8.2H69V.2Zm3.5 7.6c.9 0 1.7-.2 2.3-.6.5-.4.8-1.2.8-2.4 0-.5-.1-1.1-.3-1.6a2 2 0 0 0-.9-1C74 2 73.3 2 72.7 2h-1.1v5.8h1ZM81.2 16.5A7.6 7.6 0 0 1 80 12V6.2c0-1.2 0-2.3.4-3.4a4 4 0 0 1 1.5-2c.8-.5 1.9-.7 2.9-.6 1.6 0 2.8.3 3.5 1.2a5.8 5.8 0 0 1 1.1 3.8v.6h-2.3v-.5c0-.6 0-1.3-.2-2 0-.3-.3-.7-.6-1L84.9 2c-.6 0-1.1.1-1.6.5a1.7 1.7 0 0 0-.6 1.2 14 14 0 0 0-.2 2v6.6c0 1 .1 2 .5 3 .3.5 1 .8 1.9.8a2 2 0 0 0 1.9-1c.4-1 .6-2 .5-3v-1.3H85V9.1h4.6v8.7H88l-.2-2c-.2.6-.6 1.2-1.2 1.6-.6.4-1.3.6-2 .6a4 4 0 0 1-3.4-1.5ZM94.7 11.6 90.8.3h2.4l2.7 8.5L98.6.3h2.4l-3.9 11.3v6.2h-2.3v-6.2h-.1Z"/>
</svg>
<svg id="example-divider">
  <rect x="0" width="4" height="100%" rx="2" fill="currentColor"/>
</svg>
<svg id="page-footer__logo">
  <path d="M1.6 22A9.5 9.5 0 0 1 0 16.4V7.8c-.1-2 .4-4.1 1.5-5.9C2.6.6 4.3 0 6.8 0S11 .6 12 1.7c1.1 1.5 1.6 3.3 1.5 5v2.1H8.5V6.5c0-.7 0-1.4-.3-2-.1-.4-.3-.6-.6-.7-.2-.2-.5-.2-.8-.2-.7 0-1.2.2-1.4.7-.2.7-.3 1.5-.3 2.3v11c0 .7 0 1.4.4 2 .2.6.7.8 1.4.8s1.1-.2 1.3-.7c.2-.7.3-1.4.3-2.2v-2.4h5v2a8 8 0 0 1-1.6 5.2C11 23.5 9.2 24 7 24c-2.5-.1-4.3-.7-5.3-2ZM19.3.3H25l4.2 23.4h-4.6l-.8-5h-3.3l-.8 5H15L19.3.3Zm4.1 15.4-1.2-9.1-1.2 9h2.4ZM32.8 4.2h-3.5V.3h12v3.8h-3.4v19.6h-5.1V4.2ZM50.4.3h8.8v2.5h-5.7v7.7H58v2.3h-4.6v8.6h5.7v2.4h-9V.3h.2ZM61.8.3H64l6.5 15.5V.3h2.6v23.4h-2l-6.6-16v16h-2.7V.3ZM76.1.3H85v2.5h-5.7v7.7h4.6v2.3h-4.6v8.6H85v2.4h-8.8V.3ZM87.5.3h4.6c1.9-.1 3.7.4 5.2 1.4 1 1 1.6 2.6 1.6 4.8 0 3-1 4.8-2.8 5.4l3.2 11.7h-3.1l-3-11h-2.6v11h-3.2V.3h.1Zm4.4 10c1 .1 2.1-.1 3-.8.5-.5.8-1.5.8-3 0-.8 0-1.6-.3-2.3-.2-.5-.6-1-1-1.2-.7-.3-1.5-.5-2.3-.4h-1.4v7.7H92ZM102.9 22c-1-1.8-1.6-4-1.4-6V8.2c0-1.5.1-3 .5-4.4.3-1 1-2 1.9-2.7 1-.6 2.4-1 3.7-.9 2 0 3.6.5 4.5 1.6a8 8 0 0 1 1.4 5.2v.8h-3V7c0-.9 0-1.7-.2-2.6-.1-.5-.4-1-.8-1.3a3 3 0 0 0-2-.5 3 3 0 0 0-2 .6 2.3 2.3 0 0 0-.7 1.6c-.2 1-.2 1.9-.2 2.8v8.7c-.1 1.3 0 2.7.6 4 .4.7 1.2 1 2.4 1a2.4 2.4 0 0 0 2.4-1.2c.5-1.3.7-2.7.7-4.1v-1.6h-3V12h5.9v11.6h-2l-.3-2.7c-.3 1-.8 1.7-1.6 2.2a4 4 0 0 1-2.5.8 5 5 0 0 1-4.3-2ZM120 15.5l-5-15h3l3.6 11.2L125 .4h3l-5 15v8.3h-3v-8.2Z"/>
</svg>
<svg id="thumb">
  <rect x="0" y="0" width="40" height="40" rx="20" fill="#fff"/>
  <path d="m16 11-8 9 8 9V11ZM32 20l-8-9v18l8-9Z" fill="currentColor">
</svg>
</svg>
