<svg width="80" height="80" fill="none" xmlns="http://www.w3.org/2000/svg"><path fill="#68B738" d="M0 0h80v80H0z"/><g clip-path="url(#a)" fill="#fff"><path d="M45.8 42.5c-1.7 0-3.1 1.5-3.1 3.3 0 1.8 1.4 3.3 3 3.3 1.8 0 3.2-1.5 3.2-3.3 0-1.8-1.4-3.3-3.1-3.3Zm0 5c-1 0-1.6-.8-1.6-1.7 0-1 .7-1.7 1.6-1.7.9 0 1.6.7 1.6 1.7s-.7 1.7-1.6 1.7ZM36.6 24c-1.8 0-3.2 1.5-3.2 3.4s1.4 3.4 3.2 3.4c1.8 0 3.2-1.5 3.2-3.4S38.4 24 36.6 24Zm0 5.5c-1 0-2-1-2-2.1s1-2 2-2 2 .9 2 2-1 2-2 2Zm-3.4 12.1c-1.3 0-2.3 1.1-2.3 2.5s1 2.5 2.3 2.5c1.3 0 2.4-1.1 2.4-2.5s-1-2.5-2.4-2.5Zm-.2 1.9c-.5 0 1.2 1.1 1.2.6 0-.5-1.7.4-1.2.4s1-.9 1-.4-.5-.6-1-.6Zm10.5-9.7s3-.9 6.2 1.5c.9.7 1.7 1.3 1.1 2-.3.4-.6.7-1.7-.4a7 7 0 0 0-5.6-1.5c-1.1.2-2 .6-3.6 2.2a8.3 8.3 0 0 1-6.5 2.5 8.1 8.1 0 0 1-5.2-2.6c-.3-.4-.3-.9-.1-1.1.1-.3.8-.5 1.2-.1.3.3 2 2 3.8 2 1.7.1 3.4.2 5.7-2 2.3-2.1 3.5-2.3 4.7-2.5Z"/><mask id="b"><path d="M53.6 50.8V32.2c0-.6-.3-.7-.5-.7h-.5c-.5 0-.5.6-.5.7v18.6c0 .4-.1 1.2-.8 2-.9.6-1.7.5-1.7.5H29c-.4 0-1-.2-1.6-1-.6-.8-.5-1.9-.5-1.9v-18c0-1-.7-.9-.7-.9H26c-.5 0-.5.6-.5.8v18.5c0 1.4.4 2.4 1.5 3.4 1.1.9 2.4.8 2.4.8H50c.8 0 2-.4 2.9-1.5.9-1.2.8-2.7.8-2.7Z"/></mask><path d="M53.6 50.8V32.2c0-.6-.3-.7-.5-.7h-.5c-.5 0-.5.6-.5.7v18.6c0 .4-.1 1.2-.8 2-.9.6-1.7.5-1.7.5H29c-.4 0-1-.2-1.6-1-.6-.8-.5-1.9-.5-1.9v-18c0-1-.7-.9-.7-.9H26c-.5 0-.5.6-.5.8v18.5c0 1.4.4 2.4 1.5 3.4 1.1.9 2.4.8 2.4.8H50c.8 0 2-.4 2.9-1.5.9-1.2.8-2.7.8-2.7Z"/><path d="M53.6 50.8h-20v.8l20-.8Zm-.5-19.3.7-20h-.7v20Zm-1 .7-20-.1v.1h20Zm0 .1H32h20Zm0 18.5-20-.7 20 .7Zm-.8 2 13 15 .4-.3.4-.4-13.8-14.4Zm-1.7.5L52 33.5l-1.1-.2h-1.2v20Zm-20.6 0L25.6 73l1.1.2H28l1-19.9Zm-1.6-1L11 63.8l16.4-11.5Zm-.5-1.9 20 2.1v-2H27Zm-.7-18.9v20h.8l-.8-20Zm-.8.8-20-.3v.3h20Zm1.5 21.9-13 15.1 13-15.1Zm2.4.8V35H28l1.3 20Zm23.5-1.5L68.3 66 52.8 53.5Zm20.8-2.7V32.2h-40v18.6h40Zm0-18.6a20.6 20.6 0 0 0-19.8-20.7l-1.4 40a19.5 19.5 0 0 1-18.8-19.3h40ZM53.1 11.5h-.5v40h.5v-40Zm-.5 0a20.5 20.5 0 0 0-20.5 20.6l40 .3c0 .7 0 3.9-1.7 7.6a19.5 19.5 0 0 1-17.8 11.5v-40ZM32.1 32.2h40-40Zm0 0v.1h40-40Zm0 .1v10.5a8664.8 8664.8 0 0 1 0 7.3c0 .8 0 .4 0 0l40 1.5v-1.5a1362.3 1362.3 0 0 0 0-7.3V32.3H32Zm0 17.8c0-1.4.4-7 5.3-11.8L65 67.1a22.7 22.7 0 0 0 7-15.5L32 50Zm6.1-12.5a17.5 17.5 0 0 1 13.5-4.2h.1a2078 2078 0 0 1-4.4 39.8 43 43 0 0 0 2.9.1 22 22 0 0 0 14-5.4l-26-30.3Zm11.4 15.7v-20h-3.1a17382 17382 0 0 1-16.4 0c-1 0-.6 0 0 0l-2.2 40h21.7v-20ZM32.4 33.6a17.6 17.6 0 0 1 11.3 7.2L11 63.8c5 7.1 12 8.8 14.6 9.2l6.8-39.4Zm11.3 7.2a17.3 17.3 0 0 1 3.1 11.7l-19.9-2A3223 3223 0 0 0 7 48.3a19 19 0 0 0 0 2 23.4 23.4 0 0 0 4 13.4l32.7-23Zm3.2 9.6v-18H7v18h40Zm0-18a20.7 20.7 0 0 0-21.4-20.9l.7 20 .8 20a28.2 28.2 0 0 1-4-.3A19.3 19.3 0 0 1 7 32.3h40Zm-20.7-21H26v40h.3v-40Zm-.3 0A20.5 20.5 0 0 0 5.4 32l40 .6c0 .7 0 4-1.8 7.7a19.4 19.4 0 0 1-17.7 11.2v-40ZM5.4 32.3v18.6h40V32.2h-40Zm0 18.5c0 7 2.9 13.7 8.5 18.5l26-30.3a15.6 15.6 0 0 1 5.5 11.8h-40Zm8.5 18.5A23.6 23.6 0 0 0 30.4 75h.1l-1.2-20A2530.9 2530.9 0 0 1 28 35a16.3 16.3 0 0 1 4.5.4c2 .4 4.7 1.3 7.3 3.6L14 69.3ZM29.3 55v20H50l-.1-40H29.3v20Zm20.6 20c7.1 0 13.8-3.3 18.4-8.9l-31-25.3C40 37.5 44.4 35 49.8 35l.1 40Zm18.4-8.9a24 24 0 0 0 5.3-16l-20 .7-20 .8a8.8 8.8 0 0 1 0-.8 16.5 16.5 0 0 1 .3-3 16 16 0 0 1 3.4-7l31 25.3Z" mask="url(#b)"/></g><defs><clipPath id="a"><path fill="#fff" transform="translate(25 24)" d="M0 0h29v31H0z"/></clipPath></defs></svg>